<?xml version="1.0" encoding="UTF-8" standalone="no"?>
<!-- Created with Inkscape (http://www.inkscape.org/) -->

<svg
   xmlns:dc="http://purl.org/dc/elements/1.1/"
   xmlns:cc="http://creativecommons.org/ns#"
   xmlns:rdf="http://www.w3.org/1999/02/22-rdf-syntax-ns#"
   xmlns:svg="http://www.w3.org/2000/svg"
   xmlns="http://www.w3.org/2000/svg"
   xmlns:sodipodi="http://sodipodi.sourceforge.net/DTD/sodipodi-0.dtd"
   xmlns:inkscape="http://www.inkscape.org/namespaces/inkscape"
   id="svg4155"
   version="1.1"
   inkscape:version="0.91 r13725"
   xml:space="preserve"
   width="743.75"
   height="1052.5"
   viewBox="0 0 743.75 1052.5"
   sodipodi:docname="shrinkingGrads.svg"><metadata
     id="metadata4161"><rdf:RDF><cc:Work
         rdf:about=""><dc:format>image/svg+xml</dc:format><dc:type
           rdf:resource="http://purl.org/dc/dcmitype/StillImage" /><dc:title></dc:title></cc:Work></rdf:RDF></metadata><defs
     id="defs4159"><clipPath
       clipPathUnits="userSpaceOnUse"
       id="clipPath4169"><path
         d="m 0,0.1 595.2,0 0,841.8 L 0,841.9 0,0.1 Z"
         id="path4171"
         inkscape:connector-curvature="0"
         style="clip-rule:evenodd" /></clipPath><clipPath
       clipPathUnits="userSpaceOnUse"
       id="clipPath4177"><path
         d="m 56.7,771.2 481.8,0 0,14.1 -481.8,0 0,-14.1 z"
         id="path4179"
         inkscape:connector-curvature="0"
         style="clip-rule:evenodd" /></clipPath><clipPath
       clipPathUnits="userSpaceOnUse"
       id="clipPath4195"><path
         d="m 56.7,56.8 481.8,0 0,14.1 -481.8,0 0,-14.1 z"
         id="path4197"
         inkscape:connector-curvature="0"
         style="clip-rule:evenodd" /></clipPath><clipPath
       clipPathUnits="userSpaceOnUse"
       id="clipPath4219"><path
         d="m 120.6,86.5 64,0 0,677.5 -64,0 0,-677.5 z"
         id="path4221"
         inkscape:connector-curvature="0"
         style="clip-rule:evenodd" /></clipPath><clipPath
       clipPathUnits="userSpaceOnUse"
       id="clipPath4455"><path
         d="m 56.6,85.6 448,0 0,678.3 -448,0 0,-678.3 z"
         id="path4457"
         inkscape:connector-curvature="0"
         style="clip-rule:evenodd" /></clipPath></defs><sodipodi:namedview
     pagecolor="#ffffff"
     bordercolor="#666666"
     borderopacity="1"
     objecttolerance="10"
     gridtolerance="10"
     guidetolerance="10"
     inkscape:pageopacity="0"
     inkscape:pageshadow="2"
     inkscape:window-width="1857"
     inkscape:window-height="1176"
     id="namedview4157"
     showgrid="false"
     inkscape:zoom="0.9871734"
     inkscape:cx="77.859521"
     inkscape:cy="608.47139"
     inkscape:window-x="1983"
     inkscape:window-y="24"
     inkscape:window-maximized="1"
     inkscape:current-layer="g4163" /><g
     id="g4163"
     inkscape:groupmode="layer"
     inkscape:label="shrinkingGrads"
     transform="matrix(1.25,0,0,-1.25,0,1052.5)"><g
       id="g4165"><g
         id="g4167"
         clip-path="url(#clipPath4169)" /></g><path
       d="m 293.84852,502.68142 -288.213775,0 0,324.44709 576.427555,0 0,-324.44709 -288.21378,0 z"
       style="fill:#ffffff;fill-opacity:1;fill-rule:evenodd;stroke:none"
       id="path4459"
       inkscape:connector-curvature="0" /><g
       id="g4461"
       transform="matrix(1.2713444,0,0,1.2713444,-67.467558,50.082817)"><path
         d="m 293.2,407.3 -200.8,0 0,193.2 401.6,0 0,-193.2 -200.8,0 z"
         style="fill:none;stroke:#b3b3b3;stroke-width:0.80000001;stroke-linecap:butt;stroke-linejoin:round;stroke-miterlimit:10;stroke-dasharray:none;stroke-opacity:1"
         id="path4463"
         inkscape:connector-curvature="0" /></g><g
       id="g4465"
       transform="matrix(1.2713444,0,0,1.2713444,-67.467558,50.082817)"><path
         d="m 494,407.3 -401.6,0"
         style="fill:none;stroke:#b3b3b3;stroke-width:0.80000001;stroke-linecap:butt;stroke-linejoin:round;stroke-miterlimit:10;stroke-dasharray:none;stroke-opacity:1"
         id="path4467"
         inkscape:connector-curvature="0" /></g><g
       id="g4469"
       transform="matrix(1.2713444,0,0,1.2713444,-67.467558,50.082817)"><path
         d="m 494,426.6 -401.6,0"
         style="fill:none;stroke:#b3b3b3;stroke-width:0.80000001;stroke-linecap:butt;stroke-linejoin:round;stroke-miterlimit:10;stroke-dasharray:none;stroke-opacity:1"
         id="path4471"
         inkscape:connector-curvature="0" /></g><g
       id="g4473"
       transform="matrix(1.2713444,0,0,1.2713444,-67.467558,50.082817)"><path
         d="m 494,445.9 -401.6,0"
         style="fill:none;stroke:#b3b3b3;stroke-width:0.80000001;stroke-linecap:butt;stroke-linejoin:round;stroke-miterlimit:10;stroke-dasharray:none;stroke-opacity:1"
         id="path4475"
         inkscape:connector-curvature="0" /></g><g
       id="g4477"
       transform="matrix(1.2713444,0,0,1.2713444,-67.467558,50.082817)"><path
         d="m 494,465.3 -401.6,0"
         style="fill:none;stroke:#b3b3b3;stroke-width:0.80000001;stroke-linecap:butt;stroke-linejoin:round;stroke-miterlimit:10;stroke-dasharray:none;stroke-opacity:1"
         id="path4479"
         inkscape:connector-curvature="0" /></g><g
       id="g4481"
       transform="matrix(1.2713444,0,0,1.2713444,-67.467558,50.082817)"><path
         d="m 494,484.6 -401.6,0"
         style="fill:none;stroke:#b3b3b3;stroke-width:0.80000001;stroke-linecap:butt;stroke-linejoin:round;stroke-miterlimit:10;stroke-dasharray:none;stroke-opacity:1"
         id="path4483"
         inkscape:connector-curvature="0" /></g><g
       id="g4485"
       transform="matrix(1.2713444,0,0,1.2713444,-67.467558,50.082817)"><path
         d="m 494,503.9 -401.6,0"
         style="fill:none;stroke:#b3b3b3;stroke-width:0.80000001;stroke-linecap:butt;stroke-linejoin:round;stroke-miterlimit:10;stroke-dasharray:none;stroke-opacity:1"
         id="path4487"
         inkscape:connector-curvature="0" /></g><g
       id="g4489"
       transform="matrix(1.2713444,0,0,1.2713444,-67.467558,50.082817)"><path
         d="m 494,523.2 -401.6,0"
         style="fill:none;stroke:#b3b3b3;stroke-width:0.80000001;stroke-linecap:butt;stroke-linejoin:round;stroke-miterlimit:10;stroke-dasharray:none;stroke-opacity:1"
         id="path4491"
         inkscape:connector-curvature="0" /></g><g
       id="g4493"
       transform="matrix(1.2713444,0,0,1.2713444,-67.467558,50.082817)"><path
         d="m 494,542.5 -401.6,0"
         style="fill:none;stroke:#b3b3b3;stroke-width:0.80000001;stroke-linecap:butt;stroke-linejoin:round;stroke-miterlimit:10;stroke-dasharray:none;stroke-opacity:1"
         id="path4495"
         inkscape:connector-curvature="0" /></g><g
       id="g4497"
       transform="matrix(1.2713444,0,0,1.2713444,-67.467558,50.082817)"><path
         d="m 494,561.9 -401.6,0"
         style="fill:none;stroke:#b3b3b3;stroke-width:0.80000001;stroke-linecap:butt;stroke-linejoin:round;stroke-miterlimit:10;stroke-dasharray:none;stroke-opacity:1"
         id="path4499"
         inkscape:connector-curvature="0" /></g><g
       id="g4501"
       transform="matrix(1.2713444,0,0,1.2713444,-67.467558,50.082817)"><path
         d="m 494,581.2 -401.6,0"
         style="fill:none;stroke:#b3b3b3;stroke-width:0.80000001;stroke-linecap:butt;stroke-linejoin:round;stroke-miterlimit:10;stroke-dasharray:none;stroke-opacity:1"
         id="path4503"
         inkscape:connector-curvature="0" /></g><path
       style="opacity:0.5;fill:#2a7fff;fill-rule:evenodd;stroke:#000000;stroke-width:0.80000001px;stroke-linecap:butt;stroke-linejoin:miter;stroke-opacity:1"
       d="M 50.244466,813.63619 C 112.64485,810.39461 203.482,800.82251 219.55091,782.93951 c 21.54327,-23.97539 32.7768,-106.37782 40.92143,-117.92435 11.67694,-16.55422 34.5275,-14.58905 47.86244,-27.19388 19.08597,-18.04097 31.36804,-62.15458 42.71356,-66.20656 11.34553,-4.05198 9.67834,-2.43073 7.14608,-2.7177 -22.51706,-2.55179 -35.81461,1.33043 -53.48604,4.05197 -29.25488,4.50549 -74.38781,20.30884 -86.4609,20.24444 -72.5742,-0.3871 -168.191214,-0.79497 -168.191214,-0.79497 z"
       id="path6081"
       inkscape:connector-curvature="0"
       sodipodi:nodetypes="cssassascc" /><g
       id="g4505"
       transform="matrix(1.2713444,0,0,1.2713444,-67.467558,50.082817)"><path
         d="m 494,600.5 -401.6,0"
         style="fill:none;stroke:#b3b3b3;stroke-width:0.80000001;stroke-linecap:butt;stroke-linejoin:round;stroke-miterlimit:10;stroke-dasharray:none;stroke-opacity:1"
         id="path4507"
         inkscape:connector-curvature="0" /></g><g
       id="g4509"
       transform="matrix(1.2713444,0,0,1.2713444,-67.467558,50.082817)"><path
         d="m 92.4,403 0,4.3"
         style="fill:none;stroke:#b3b3b3;stroke-width:0.80000001;stroke-linecap:butt;stroke-linejoin:round;stroke-miterlimit:10;stroke-dasharray:none;stroke-opacity:1"
         id="path4511"
         inkscape:connector-curvature="0" /></g><g
       id="g4513"
       transform="matrix(1.2713444,0,0,1.2713444,-67.467558,50.082817)"><path
         d="m 92.4,403 0,4.3"
         style="fill:none;stroke:#b3b3b3;stroke-width:0.80000001;stroke-linecap:butt;stroke-linejoin:round;stroke-miterlimit:10;stroke-dasharray:none;stroke-opacity:1"
         id="path4515"
         inkscape:connector-curvature="0" /></g><g
       id="g4517"
       transform="matrix(1.2713444,0,0,1.2713444,-67.467558,50.082817)"><path
         d="m 159.3,403 0,4.3"
         style="fill:none;stroke:#b3b3b3;stroke-width:0.80000001;stroke-linecap:butt;stroke-linejoin:round;stroke-miterlimit:10;stroke-dasharray:none;stroke-opacity:1"
         id="path4519"
         inkscape:connector-curvature="0" /></g><g
       id="g4521"
       transform="matrix(1.2713444,0,0,1.2713444,-67.467558,50.082817)"><path
         d="m 159.3,403 0,4.3"
         style="fill:none;stroke:#b3b3b3;stroke-width:0.80000001;stroke-linecap:butt;stroke-linejoin:round;stroke-miterlimit:10;stroke-dasharray:none;stroke-opacity:1"
         id="path4523"
         inkscape:connector-curvature="0" /></g><g
       id="g4525"
       transform="matrix(1.2713444,0,0,1.2713444,-67.467558,50.082817)"><path
         d="m 226.2,403 0,4.3"
         style="fill:none;stroke:#b3b3b3;stroke-width:0.80000001;stroke-linecap:butt;stroke-linejoin:round;stroke-miterlimit:10;stroke-dasharray:none;stroke-opacity:1"
         id="path4527"
         inkscape:connector-curvature="0" /></g><g
       id="g4529"
       transform="matrix(1.2713444,0,0,1.2713444,-67.467558,50.082817)"><path
         d="m 226.2,403 0,4.3"
         style="fill:none;stroke:#b3b3b3;stroke-width:0.80000001;stroke-linecap:butt;stroke-linejoin:round;stroke-miterlimit:10;stroke-dasharray:none;stroke-opacity:1"
         id="path4531"
         inkscape:connector-curvature="0" /></g><g
       id="g4533"
       transform="matrix(1.2713444,0,0,1.2713444,-67.467558,50.082817)"><path
         d="m 293.2,403 0,4.3"
         style="fill:none;stroke:#b3b3b3;stroke-width:0.80000001;stroke-linecap:butt;stroke-linejoin:round;stroke-miterlimit:10;stroke-dasharray:none;stroke-opacity:1"
         id="path4535"
         inkscape:connector-curvature="0" /></g><g
       id="g4537"
       transform="matrix(1.2713444,0,0,1.2713444,-67.467558,50.082817)"><path
         d="m 293.2,403 0,4.3"
         style="fill:none;stroke:#b3b3b3;stroke-width:0.80000001;stroke-linecap:butt;stroke-linejoin:round;stroke-miterlimit:10;stroke-dasharray:none;stroke-opacity:1"
         id="path4539"
         inkscape:connector-curvature="0" /></g><g
       id="g4541"
       transform="matrix(1.2713444,0,0,1.2713444,-67.467558,50.082817)"><path
         d="m 360.1,403 0,4.3"
         style="fill:none;stroke:#b3b3b3;stroke-width:0.80000001;stroke-linecap:butt;stroke-linejoin:round;stroke-miterlimit:10;stroke-dasharray:none;stroke-opacity:1"
         id="path4543"
         inkscape:connector-curvature="0" /></g><g
       id="g4545"
       transform="matrix(1.2713444,0,0,1.2713444,-67.467558,50.082817)"><path
         d="m 360.1,403 0,4.3"
         style="fill:none;stroke:#b3b3b3;stroke-width:0.80000001;stroke-linecap:butt;stroke-linejoin:round;stroke-miterlimit:10;stroke-dasharray:none;stroke-opacity:1"
         id="path4547"
         inkscape:connector-curvature="0" /></g><g
       id="g4549"
       transform="matrix(1.2713444,0,0,1.2713444,-67.467558,50.082817)"><path
         d="m 427,403 0,4.3"
         style="fill:none;stroke:#b3b3b3;stroke-width:0.80000001;stroke-linecap:butt;stroke-linejoin:round;stroke-miterlimit:10;stroke-dasharray:none;stroke-opacity:1"
         id="path4551"
         inkscape:connector-curvature="0" /></g><g
       id="g4553"
       transform="matrix(1.2713444,0,0,1.2713444,-67.467558,50.082817)"><path
         d="m 427,403 0,4.3"
         style="fill:none;stroke:#b3b3b3;stroke-width:0.80000001;stroke-linecap:butt;stroke-linejoin:round;stroke-miterlimit:10;stroke-dasharray:none;stroke-opacity:1"
         id="path4555"
         inkscape:connector-curvature="0" /></g><g
       id="g4557"
       transform="matrix(1.2713444,0,0,1.2713444,-67.467558,50.082817)"><path
         d="m 494,403 0,4.3"
         style="fill:none;stroke:#b3b3b3;stroke-width:0.80000001;stroke-linecap:butt;stroke-linejoin:round;stroke-miterlimit:10;stroke-dasharray:none;stroke-opacity:1"
         id="path4559"
         inkscape:connector-curvature="0" /></g><g
       id="g4561"
       transform="matrix(1.2713444,0,0,1.2713444,-67.467558,50.082817)"><path
         d="m 494,403 0,4.3"
         style="fill:none;stroke:#b3b3b3;stroke-width:0.80000001;stroke-linecap:butt;stroke-linejoin:round;stroke-miterlimit:10;stroke-dasharray:none;stroke-opacity:1"
         id="path4563"
         inkscape:connector-curvature="0" /></g><g
       id="g4565"
       transform="matrix(1.2713444,0,0,1.2713444,-67.467558,50.082817)"><path
         d="m 92.4,407.3 401.6,0"
         style="fill:none;stroke:#b3b3b3;stroke-width:0.80000001;stroke-linecap:butt;stroke-linejoin:round;stroke-miterlimit:10;stroke-dasharray:none;stroke-opacity:1"
         id="path4567"
         inkscape:connector-curvature="0" /></g><g
       id="g4569"
       transform="matrix(1.2713444,0,0,1.2713444,-67.467558,50.082817)"><path
         d="m 88.1,407.3 4.3,0"
         style="fill:none;stroke:#b3b3b3;stroke-width:0.80000001;stroke-linecap:butt;stroke-linejoin:round;stroke-miterlimit:10;stroke-dasharray:none;stroke-opacity:1"
         id="path4571"
         inkscape:connector-curvature="0" /></g><g
       id="g4573"
       transform="matrix(1.2713444,0,0,1.2713444,-67.467558,50.082817)"><path
         d="m 88.1,407.3 4.3,0"
         style="fill:none;stroke:#b3b3b3;stroke-width:0.80000001;stroke-linecap:butt;stroke-linejoin:round;stroke-miterlimit:10;stroke-dasharray:none;stroke-opacity:1"
         id="path4575"
         inkscape:connector-curvature="0" /></g><g
       id="g4577"
       transform="matrix(1.2713444,0,0,1.2713444,-67.467558,50.082817)"><path
         d="m 88.1,426.6 4.3,0"
         style="fill:none;stroke:#b3b3b3;stroke-width:0.80000001;stroke-linecap:butt;stroke-linejoin:round;stroke-miterlimit:10;stroke-dasharray:none;stroke-opacity:1"
         id="path4579"
         inkscape:connector-curvature="0" /></g><g
       id="g4581"
       transform="matrix(1.2713444,0,0,1.2713444,-67.467558,50.082817)"><path
         d="m 88.1,426.6 4.3,0"
         style="fill:none;stroke:#b3b3b3;stroke-width:0.80000001;stroke-linecap:butt;stroke-linejoin:round;stroke-miterlimit:10;stroke-dasharray:none;stroke-opacity:1"
         id="path4583"
         inkscape:connector-curvature="0" /></g><g
       id="g4585"
       transform="matrix(1.2713444,0,0,1.2713444,-67.467558,50.082817)"><path
         d="m 88.1,445.9 4.3,0"
         style="fill:none;stroke:#b3b3b3;stroke-width:0.80000001;stroke-linecap:butt;stroke-linejoin:round;stroke-miterlimit:10;stroke-dasharray:none;stroke-opacity:1"
         id="path4587"
         inkscape:connector-curvature="0" /></g><g
       id="g4589"
       transform="matrix(1.2713444,0,0,1.2713444,-67.467558,50.082817)"><path
         d="m 88.1,445.9 4.3,0"
         style="fill:none;stroke:#b3b3b3;stroke-width:0.80000001;stroke-linecap:butt;stroke-linejoin:round;stroke-miterlimit:10;stroke-dasharray:none;stroke-opacity:1"
         id="path4591"
         inkscape:connector-curvature="0" /></g><g
       id="g4593"
       transform="matrix(1.2713444,0,0,1.2713444,-67.467558,50.082817)"><path
         d="m 88.1,465.3 4.3,0"
         style="fill:none;stroke:#b3b3b3;stroke-width:0.80000001;stroke-linecap:butt;stroke-linejoin:round;stroke-miterlimit:10;stroke-dasharray:none;stroke-opacity:1"
         id="path4595"
         inkscape:connector-curvature="0" /></g><g
       id="g4597"
       transform="matrix(1.2713444,0,0,1.2713444,-67.467558,50.082817)"><path
         d="m 88.1,465.3 4.3,0"
         style="fill:none;stroke:#b3b3b3;stroke-width:0.80000001;stroke-linecap:butt;stroke-linejoin:round;stroke-miterlimit:10;stroke-dasharray:none;stroke-opacity:1"
         id="path4599"
         inkscape:connector-curvature="0" /></g><g
       id="g4601"
       transform="matrix(1.2713444,0,0,1.2713444,-67.467558,50.082817)"><path
         d="m 88.1,484.6 4.3,0"
         style="fill:none;stroke:#b3b3b3;stroke-width:0.80000001;stroke-linecap:butt;stroke-linejoin:round;stroke-miterlimit:10;stroke-dasharray:none;stroke-opacity:1"
         id="path4603"
         inkscape:connector-curvature="0" /></g><g
       id="g4605"
       transform="matrix(1.2713444,0,0,1.2713444,-67.467558,50.082817)"><path
         d="m 88.1,484.6 4.3,0"
         style="fill:none;stroke:#b3b3b3;stroke-width:0.80000001;stroke-linecap:butt;stroke-linejoin:round;stroke-miterlimit:10;stroke-dasharray:none;stroke-opacity:1"
         id="path4607"
         inkscape:connector-curvature="0" /></g><g
       id="g4609"
       transform="matrix(1.2713444,0,0,1.2713444,-67.467558,50.082817)"><path
         d="m 88.1,503.9 4.3,0"
         style="fill:none;stroke:#b3b3b3;stroke-width:0.80000001;stroke-linecap:butt;stroke-linejoin:round;stroke-miterlimit:10;stroke-dasharray:none;stroke-opacity:1"
         id="path4611"
         inkscape:connector-curvature="0" /></g><g
       id="g4613"
       transform="matrix(1.2713444,0,0,1.2713444,-67.467558,50.082817)"><path
         d="m 88.1,503.9 4.3,0"
         style="fill:none;stroke:#b3b3b3;stroke-width:0.80000001;stroke-linecap:butt;stroke-linejoin:round;stroke-miterlimit:10;stroke-dasharray:none;stroke-opacity:1"
         id="path4615"
         inkscape:connector-curvature="0" /></g><g
       id="g4617"
       transform="matrix(1.2713444,0,0,1.2713444,-67.467558,50.082817)"><path
         d="m 88.1,523.2 4.3,0"
         style="fill:none;stroke:#b3b3b3;stroke-width:0.80000001;stroke-linecap:butt;stroke-linejoin:round;stroke-miterlimit:10;stroke-dasharray:none;stroke-opacity:1"
         id="path4619"
         inkscape:connector-curvature="0" /></g><g
       id="g4621"
       transform="matrix(1.2713444,0,0,1.2713444,-67.467558,50.082817)"><path
         d="m 88.1,523.2 4.3,0"
         style="fill:none;stroke:#b3b3b3;stroke-width:0.80000001;stroke-linecap:butt;stroke-linejoin:round;stroke-miterlimit:10;stroke-dasharray:none;stroke-opacity:1"
         id="path4623"
         inkscape:connector-curvature="0" /></g><g
       id="g4625"
       transform="matrix(1.2713444,0,0,1.2713444,-67.467558,50.082817)"><path
         d="m 88.1,542.5 4.3,0"
         style="fill:none;stroke:#b3b3b3;stroke-width:0.80000001;stroke-linecap:butt;stroke-linejoin:round;stroke-miterlimit:10;stroke-dasharray:none;stroke-opacity:1"
         id="path4627"
         inkscape:connector-curvature="0" /></g><g
       id="g4629"
       transform="matrix(1.2713444,0,0,1.2713444,-67.467558,50.082817)"><path
         d="m 88.1,542.5 4.3,0"
         style="fill:none;stroke:#b3b3b3;stroke-width:0.80000001;stroke-linecap:butt;stroke-linejoin:round;stroke-miterlimit:10;stroke-dasharray:none;stroke-opacity:1"
         id="path4631"
         inkscape:connector-curvature="0" /></g><g
       id="g4633"
       transform="matrix(1.2713444,0,0,1.2713444,-67.467558,50.082817)"><path
         d="m 88.1,561.9 4.3,0"
         style="fill:none;stroke:#b3b3b3;stroke-width:0.80000001;stroke-linecap:butt;stroke-linejoin:round;stroke-miterlimit:10;stroke-dasharray:none;stroke-opacity:1"
         id="path4635"
         inkscape:connector-curvature="0" /></g><g
       id="g4637"
       transform="matrix(1.2713444,0,0,1.2713444,-67.467558,50.082817)"><path
         d="m 88.1,561.9 4.3,0"
         style="fill:none;stroke:#b3b3b3;stroke-width:0.80000001;stroke-linecap:butt;stroke-linejoin:round;stroke-miterlimit:10;stroke-dasharray:none;stroke-opacity:1"
         id="path4639"
         inkscape:connector-curvature="0" /></g><g
       id="g4641"
       transform="matrix(1.2713444,0,0,1.2713444,-67.467558,50.082817)"><path
         d="m 88.1,581.2 4.3,0"
         style="fill:none;stroke:#b3b3b3;stroke-width:0.80000001;stroke-linecap:butt;stroke-linejoin:round;stroke-miterlimit:10;stroke-dasharray:none;stroke-opacity:1"
         id="path4643"
         inkscape:connector-curvature="0" /></g><g
       id="g4645"
       transform="matrix(1.2713444,0,0,1.2713444,-67.467558,50.082817)"><path
         d="m 88.1,581.2 4.3,0"
         style="fill:none;stroke:#b3b3b3;stroke-width:0.80000001;stroke-linecap:butt;stroke-linejoin:round;stroke-miterlimit:10;stroke-dasharray:none;stroke-opacity:1"
         id="path4647"
         inkscape:connector-curvature="0" /></g><g
       id="g4649"
       transform="matrix(1.2713444,0,0,1.2713444,-67.467558,50.082817)"><path
         d="m 88.1,600.5 4.3,0"
         style="fill:none;stroke:#b3b3b3;stroke-width:0.80000001;stroke-linecap:butt;stroke-linejoin:round;stroke-miterlimit:10;stroke-dasharray:none;stroke-opacity:1"
         id="path4651"
         inkscape:connector-curvature="0" /></g><g
       id="g4653"
       transform="matrix(1.2713444,0,0,1.2713444,-67.467558,50.082817)"><path
         d="m 88.1,600.5 4.3,0"
         style="fill:none;stroke:#b3b3b3;stroke-width:0.80000001;stroke-linecap:butt;stroke-linejoin:round;stroke-miterlimit:10;stroke-dasharray:none;stroke-opacity:1"
         id="path4655"
         inkscape:connector-curvature="0" /></g><g
       id="g4657"
       transform="matrix(1.2713444,0,0,1.2713444,-67.467558,50.082817)"><path
         d="m 92.4,407.3 0,193.2"
         style="fill:none;stroke:#b3b3b3;stroke-width:0.80000001;stroke-linecap:butt;stroke-linejoin:round;stroke-miterlimit:10;stroke-dasharray:none;stroke-opacity:1"
         id="path4659"
         inkscape:connector-curvature="0" /></g><g
       id="g4661"
       transform="matrix(1.2713444,0,0,1.2713444,-67.467558,50.082817)"><path
         d="m 92.4,487.7 13.4,53.7 20,-39 33.5,5.7 66.9,-3.4 33.5,-58.9 33.5,-8.1 33.4,-29.4 100.4,0.4 67,-0.3"
         style="fill:none;stroke:#004586;stroke-width:2.26384997;stroke-linecap:butt;stroke-linejoin:round;stroke-miterlimit:10;stroke-dasharray:none;stroke-opacity:1"
         id="path4663"
         inkscape:connector-curvature="0" /></g><path
       d="m 45.427825,674.56719 0,-9.02655 9.026545,0 0,9.02655 -9.026545,0 z"
       style="fill:#004586;fill-opacity:1;fill-rule:evenodd;stroke:none"
       id="path4665"
       inkscape:connector-curvature="0" /><g
       id="g4667"
       transform="matrix(1.2713444,0,0,1.2713444,-67.467558,50.082817)"><path
         d="m 88.8,491.2 0,-7.1 7.1,0 0,7.1 -7.1,0 z"
         style="fill:none;stroke:#004586;stroke-width:0.80000001;stroke-linecap:butt;stroke-linejoin:round;stroke-miterlimit:10;stroke-dasharray:none;stroke-opacity:1"
         id="path4669"
         inkscape:connector-curvature="0" /></g><path
       d="m 62.46384,742.83838 0,-9.02654 9.026545,0 0,9.02654 -9.026545,0 z"
       style="fill:#004586;fill-opacity:1;fill-rule:evenodd;stroke:none"
       id="path4671"
       inkscape:connector-curvature="0" /><g
       id="g4673"
       transform="matrix(1.2713444,0,0,1.2713444,-67.467558,50.082817)"><path
         d="m 102.2,544.9 0,-7.1 7.1,0 0,7.1 -7.1,0 z"
         style="fill:none;stroke:#004586;stroke-width:0.80000001;stroke-linecap:butt;stroke-linejoin:round;stroke-miterlimit:10;stroke-dasharray:none;stroke-opacity:1"
         id="path4675"
         inkscape:connector-curvature="0" /></g><path
       d="m 88.017862,693.25595 0,-9.02655 9.026545,0 0,9.02655 -9.026545,0 z"
       style="fill:#004586;fill-opacity:1;fill-rule:evenodd;stroke:none"
       id="path4677"
       inkscape:connector-curvature="0" /><g
       id="g4679"
       transform="matrix(1.2713444,0,0,1.2713444,-67.467558,50.082817)"><path
         d="m 122.3,505.9 0,-7.1 7.1,0 0,7.1 -7.1,0 z"
         style="fill:none;stroke:#004586;stroke-width:0.80000001;stroke-linecap:butt;stroke-linejoin:round;stroke-miterlimit:10;stroke-dasharray:none;stroke-opacity:1"
         id="path4681"
         inkscape:connector-curvature="0" /></g><path
       d="m 130.6079,700.62975 0,-9.02655 9.02654,0 0,9.02655 -9.02654,0 z"
       style="fill:#004586;fill-opacity:1;fill-rule:evenodd;stroke:none"
       id="path4683"
       inkscape:connector-curvature="0" /><g
       id="g4685"
       transform="matrix(1.2713444,0,0,1.2713444,-67.467558,50.082817)"><path
         d="m 155.8,511.7 0,-7.1 7.1,0 0,7.1 -7.1,0 z"
         style="fill:none;stroke:#004586;stroke-width:0.80000001;stroke-linecap:butt;stroke-linejoin:round;stroke-miterlimit:10;stroke-dasharray:none;stroke-opacity:1"
         id="path4687"
         inkscape:connector-curvature="0" /></g><path
       d="m 215.66084,696.18004 0,-9.02654 9.02655,0 0,9.02654 -9.02655,0 z"
       style="fill:#004586;fill-opacity:1;fill-rule:evenodd;stroke:none"
       id="path4689"
       inkscape:connector-curvature="0" /><g
       id="g4691"
       transform="matrix(1.2713444,0,0,1.2713444,-67.467558,50.082817)"><path
         d="m 222.7,508.2 0,-7.1 7.1,0 0,7.1 -7.1,0 z"
         style="fill:none;stroke:#004586;stroke-width:0.80000001;stroke-linecap:butt;stroke-linejoin:round;stroke-miterlimit:10;stroke-dasharray:none;stroke-opacity:1"
         id="path4693"
         inkscape:connector-curvature="0" /></g><path
       d="m 258.25088,621.42499 0,-9.02654 9.02654,0 0,9.02654 -9.02654,0 z"
       style="fill:#004586;fill-opacity:1;fill-rule:evenodd;stroke:none"
       id="path4695"
       inkscape:connector-curvature="0" /><g
       id="g4697"
       transform="matrix(1.2713444,0,0,1.2713444,-67.467558,50.082817)"><path
         d="m 256.2,449.4 0,-7.1 7.1,0 0,7.1 -7.1,0 z"
         style="fill:none;stroke:#004586;stroke-width:0.80000001;stroke-linecap:butt;stroke-linejoin:round;stroke-miterlimit:10;stroke-dasharray:none;stroke-opacity:1"
         id="path4699"
         inkscape:connector-curvature="0" /></g><path
       d="m 300.71378,611.1271 0,-9.02654 9.02655,0 0,9.02654 -9.02655,0 z"
       style="fill:#004586;fill-opacity:1;fill-rule:evenodd;stroke:none"
       id="path4701"
       inkscape:connector-curvature="0" /><g
       id="g4703"
       transform="matrix(1.2713444,0,0,1.2713444,-67.467558,50.082817)"><path
         d="m 289.6,441.3 0,-7.1 7.1,0 0,7.1 -7.1,0 z"
         style="fill:none;stroke:#004586;stroke-width:0.80000001;stroke-linecap:butt;stroke-linejoin:round;stroke-miterlimit:10;stroke-dasharray:none;stroke-opacity:1"
         id="path4705"
         inkscape:connector-curvature="0" /></g><path
       d="m 343.30382,573.74958 0,-9.02655 9.02654,0 0,9.02655 -9.02654,0 z"
       style="fill:#004586;fill-opacity:1;fill-rule:evenodd;stroke:none"
       id="path4707"
       inkscape:connector-curvature="0" /><g
       id="g4709"
       transform="matrix(1.2713444,0,0,1.2713444,-67.467558,50.082817)"><path
         d="m 323.1,411.9 0,-7.1 7.1,0 0,7.1 -7.1,0 z"
         style="fill:none;stroke:#004586;stroke-width:0.80000001;stroke-linecap:butt;stroke-linejoin:round;stroke-miterlimit:10;stroke-dasharray:none;stroke-opacity:1"
         id="path4711"
         inkscape:connector-curvature="0" /></g><path
       d="m 470.9468,574.25811 0,-9.02654 9.02654,0 0,9.02654 -9.02654,0 z"
       style="fill:#004586;fill-opacity:1;fill-rule:evenodd;stroke:none"
       id="path4713"
       inkscape:connector-curvature="0" /><g
       id="g4715"
       transform="matrix(1.2713444,0,0,1.2713444,-67.467558,50.082817)"><path
         d="m 423.5,412.3 0,-7.1 7.1,0 0,7.1 -7.1,0 z"
         style="fill:none;stroke:#004586;stroke-width:0.80000001;stroke-linecap:butt;stroke-linejoin:round;stroke-miterlimit:10;stroke-dasharray:none;stroke-opacity:1"
         id="path4717"
         inkscape:connector-curvature="0" /></g><g
       id="g4719"
       transform="matrix(1.2713444,0,0,1.2713444,-67.467558,50.082817)"><text
         transform="matrix(1,0,0,-1,89.7,391.2)"
         style="font-variant:normal;font-weight:normal;font-size:10px;font-family:'Liberation Sans';-inkscape-font-specification:LiberationSans;writing-mode:lr-tb;fill:#000000;fill-opacity:1;fill-rule:nonzero;stroke:none"
         id="text4721"><tspan
           x="0"
           y="0"
           id="tspan4723">0</tspan></text>
</g><g
       id="g4725"
       transform="matrix(1.2713444,0,0,1.2713444,-67.467558,50.082817)"><text
         transform="matrix(1,0,0,-1,151.4,391.2)"
         style="font-variant:normal;font-weight:normal;font-size:10px;font-family:'Liberation Sans';-inkscape-font-specification:LiberationSans;writing-mode:lr-tb;fill:#000000;fill-opacity:1;fill-rule:nonzero;stroke:none"
         id="text4727"><tspan
           x="0 5.3000002 10.5"
           y="0"
           sodipodi:role="line"
           id="tspan4729">100</tspan></text>
</g><g
       id="g4731"
       transform="matrix(1.2713444,0,0,1.2713444,-67.467558,50.082817)"><text
         transform="matrix(1,0,0,-1,218.4,391.2)"
         style="font-variant:normal;font-weight:normal;font-size:10px;font-family:'Liberation Sans';-inkscape-font-specification:LiberationSans;writing-mode:lr-tb;fill:#000000;fill-opacity:1;fill-rule:nonzero;stroke:none"
         id="text4733"><tspan
           x="0 5.1999998 10.4"
           y="0"
           sodipodi:role="line"
           id="tspan4735">200</tspan></text>
</g><g
       id="g4737"
       transform="matrix(1.2713444,0,0,1.2713444,-67.467558,50.082817)"><text
         transform="matrix(1,0,0,-1,285.3,391.2)"
         style="font-variant:normal;font-weight:normal;font-size:10px;font-family:'Liberation Sans';-inkscape-font-specification:LiberationSans;writing-mode:lr-tb;fill:#000000;fill-opacity:1;fill-rule:nonzero;stroke:none"
         id="text4739"><tspan
           x="0 5.3000002 10.5"
           y="0"
           sodipodi:role="line"
           id="tspan4741">300</tspan></text>
</g><g
       id="g4743"
       transform="matrix(1.2713444,0,0,1.2713444,-67.467558,50.082817)"><text
         transform="matrix(1,0,0,-1,352.2,391.2)"
         style="font-variant:normal;font-weight:normal;font-size:10px;font-family:'Liberation Sans';-inkscape-font-specification:LiberationSans;writing-mode:lr-tb;fill:#000000;fill-opacity:1;fill-rule:nonzero;stroke:none"
         id="text4745"><tspan
           x="0 5.3000002 10.5"
           y="0"
           sodipodi:role="line"
           id="tspan4747">400</tspan></text>
</g><g
       id="g4749"
       transform="matrix(1.2713444,0,0,1.2713444,-67.467558,50.082817)"><text
         transform="matrix(1,0,0,-1,419.2,391.2)"
         style="font-variant:normal;font-weight:normal;font-size:10px;font-family:'Liberation Sans';-inkscape-font-specification:LiberationSans;writing-mode:lr-tb;fill:#000000;fill-opacity:1;fill-rule:nonzero;stroke:none"
         id="text4751"><tspan
           x="0 5.1999998 10.5"
           y="0"
           sodipodi:role="line"
           id="tspan4753">500</tspan></text>
</g><g
       id="g4755"
       transform="matrix(1.2713444,0,0,1.2713444,-67.467558,50.082817)"><text
         transform="matrix(1,0,0,-1,486.1,391.2)"
         style="font-variant:normal;font-weight:normal;font-size:10px;font-family:'Liberation Sans';-inkscape-font-specification:LiberationSans;writing-mode:lr-tb;fill:#000000;fill-opacity:1;fill-rule:nonzero;stroke:none"
         id="text4757"><tspan
           x="0 5.3000002 10.5"
           y="0"
           sodipodi:role="line"
           id="tspan4759">600</tspan></text>
</g><g
       id="g4761"
       transform="matrix(1.2713444,0,0,1.2713444,-67.467558,50.082817)"><text
         transform="matrix(1,0,0,-1,80.1,403.8)"
         style="font-variant:normal;font-weight:normal;font-size:10px;font-family:'Liberation Sans';-inkscape-font-specification:LiberationSans;writing-mode:lr-tb;fill:#000000;fill-opacity:1;fill-rule:nonzero;stroke:none"
         id="text4763"><tspan
           x="0"
           y="0"
           id="tspan4765">0</tspan></text>
</g><g
       id="g4767"
       transform="matrix(1.2713444,0,0,1.2713444,-67.467558,50.082817)"><text
         transform="matrix(1,0,0,-1,66.6,423.2)"
         style="font-variant:normal;font-weight:normal;font-size:10px;font-family:'Liberation Sans';-inkscape-font-specification:LiberationSans;writing-mode:lr-tb;fill:#000000;fill-opacity:1;fill-rule:nonzero;stroke:none"
         id="text4769"><tspan
           x="0 5.1999998 8.1899996 13.49"
           y="0"
           sodipodi:role="line"
           id="tspan4771">0.05</tspan></text>
</g><g
       id="g4773"
       transform="matrix(1.2713444,0,0,1.2713444,-67.467558,50.082817)"><text
         transform="matrix(1,0,0,-1,71.8,442.5)"
         style="font-variant:normal;font-weight:normal;font-size:10px;font-family:'Liberation Sans';-inkscape-font-specification:LiberationSans;writing-mode:lr-tb;fill:#000000;fill-opacity:1;fill-rule:nonzero;stroke:none"
         id="text4775"><tspan
           x="0 5.3000002 8.29"
           y="0"
           sodipodi:role="line"
           id="tspan4777">0.1</tspan></text>
</g><g
       id="g4779"
       transform="matrix(1.2713444,0,0,1.2713444,-67.467558,50.082817)"><text
         transform="matrix(1,0,0,-1,66.6,461.8)"
         style="font-variant:normal;font-weight:normal;font-size:10px;font-family:'Liberation Sans';-inkscape-font-specification:LiberationSans;writing-mode:lr-tb;fill:#000000;fill-opacity:1;fill-rule:nonzero;stroke:none"
         id="text4781"><tspan
           x="0 5.1999998 8.1899996 13.49"
           y="0"
           sodipodi:role="line"
           id="tspan4783">0.15</tspan></text>
</g><g
       id="g4785"
       transform="matrix(1.2713444,0,0,1.2713444,-67.467558,50.082817)"><text
         transform="matrix(1,0,0,-1,71.8,481.2)"
         style="font-variant:normal;font-weight:normal;font-size:10px;font-family:'Liberation Sans';-inkscape-font-specification:LiberationSans;writing-mode:lr-tb;fill:#000000;fill-opacity:1;fill-rule:nonzero;stroke:none"
         id="text4787"><tspan
           x="0 5.3000002 8.29"
           y="0"
           sodipodi:role="line"
           id="tspan4789">0.2</tspan></text>
</g><g
       id="g4791"
       transform="matrix(1.2713444,0,0,1.2713444,-67.467558,50.082817)"><text
         transform="matrix(1,0,0,-1,66.6,500.5)"
         style="font-variant:normal;font-weight:normal;font-size:10px;font-family:'Liberation Sans';-inkscape-font-specification:LiberationSans;writing-mode:lr-tb;fill:#000000;fill-opacity:1;fill-rule:nonzero;stroke:none"
         id="text4793"><tspan
           x="0 5.1999998 8.1899996 13.49"
           y="0"
           sodipodi:role="line"
           id="tspan4795">0.25</tspan></text>
</g><g
       id="g4797"
       transform="matrix(1.2713444,0,0,1.2713444,-67.467558,50.082817)"><text
         transform="matrix(1,0,0,-1,71.8,519.8)"
         style="font-variant:normal;font-weight:normal;font-size:10px;font-family:'Liberation Sans';-inkscape-font-specification:LiberationSans;writing-mode:lr-tb;fill:#000000;fill-opacity:1;fill-rule:nonzero;stroke:none"
         id="text4799"><tspan
           x="0 5.3000002 8.29"
           y="0"
           sodipodi:role="line"
           id="tspan4801">0.3</tspan></text>
</g><g
       id="g4803"
       transform="matrix(1.2713444,0,0,1.2713444,-67.467558,50.082817)"><text
         transform="matrix(1,0,0,-1,66.6,539.1)"
         style="font-variant:normal;font-weight:normal;font-size:10px;font-family:'Liberation Sans';-inkscape-font-specification:LiberationSans;writing-mode:lr-tb;fill:#000000;fill-opacity:1;fill-rule:nonzero;stroke:none"
         id="text4805"><tspan
           x="0 5.1999998 8.1899996 13.49"
           y="0"
           sodipodi:role="line"
           id="tspan4807">0.35</tspan></text>
</g><g
       id="g4809"
       transform="matrix(1.2713444,0,0,1.2713444,-67.467558,50.082817)"><text
         transform="matrix(1,0,0,-1,71.8,558.5)"
         style="font-variant:normal;font-weight:normal;font-size:10px;font-family:'Liberation Sans';-inkscape-font-specification:LiberationSans;writing-mode:lr-tb;fill:#000000;fill-opacity:1;fill-rule:nonzero;stroke:none"
         id="text4811"><tspan
           x="0 5.3000002 8.29"
           y="0"
           sodipodi:role="line"
           id="tspan4813">0.4</tspan></text>
</g><g
       id="g4815"
       transform="matrix(1.2713444,0,0,1.2713444,-67.467558,50.082817)"><text
         transform="matrix(1,0,0,-1,66.6,577.8)"
         style="font-variant:normal;font-weight:normal;font-size:10px;font-family:'Liberation Sans';-inkscape-font-specification:LiberationSans;writing-mode:lr-tb;fill:#000000;fill-opacity:1;fill-rule:nonzero;stroke:none"
         id="text4817"><tspan
           x="0 5.1999998 8.1899996 13.49"
           y="0"
           sodipodi:role="line"
           id="tspan4819">0.45</tspan></text>
</g><g
       id="g4821"
       transform="matrix(1.2713444,0,0,1.2713444,-67.467558,50.082817)"><text
         transform="matrix(1,0,0,-1,71.8,597.1)"
         style="font-variant:normal;font-weight:normal;font-size:10px;font-family:'Liberation Sans';-inkscape-font-specification:LiberationSans;writing-mode:lr-tb;fill:#000000;fill-opacity:1;fill-rule:nonzero;stroke:none"
         id="text4823"><tspan
           x="0 5.3000002 8.29"
           y="0"
           sodipodi:role="line"
           id="tspan4825">0.5</tspan></text>
</g><g
       id="g4827"
       transform="matrix(1.2713444,0,0,1.2713444,-67.467558,50.082817)"><text
         transform="matrix(1,0,0,-1,269.2,372.8)"
         style="font-variant:normal;font-weight:normal;font-size:9px;font-family:'Liberation Sans';-inkscape-font-specification:LiberationSans;writing-mode:lr-tb;fill:#000000;fill-opacity:1;fill-rule:nonzero;stroke:none"
         id="text4829"><tspan
           x="0 5.2919998 10.485 15.777 20.277 25.569"
           y="0"
           sodipodi:role="line"
           id="tspan4831">epochs</tspan></text>
</g></g></svg>